<?xml version="1.0" standalone="no"?><!DOCTYPE svg PUBLIC "-//W3C//DTD SVG 1.1//EN" "http://www.w3.org/Graphics/SVG/1.1/DTD/svg11.dtd"><svg t="1715867447023" class="icon" viewBox="0 0 1024 1024" version="1.1" xmlns="http://www.w3.org/2000/svg" p-id="2334" xmlns:xlink="http://www.w3.org/1999/xlink" width="64" height="64"><path d="M512 1022.35C230.14 1022.35 1.65 793.86 1.65 512 1.65 230.14 230.14 1.65 512 1.65 793.86 1.65 1022.35 230.14 1022.35 512c0 281.86-228.492 510.35-510.35 510.35z m0-35.196c262.42 0 475.154-212.734 475.154-475.154C987.154 249.58 774.42 36.846 512 36.846 249.58 36.846 36.846 249.58 36.846 512c0 262.42 212.734 475.154 475.154 475.154z" fill="#ffffff" p-id="2335"></path><path d="M575.85 390.842a21.442 21.442 0 0 0 0-30.84c-8.72-8.516-22.864-8.516-31.588 0l-148.908 145.38a21.44 21.44 0 0 0 0 30.838l148.908 145.376c8.724 8.516 22.866 8.516 31.588 0a21.442 21.442 0 0 0 0-30.84L442.736 520.8l133.114-129.958z" fill="#ffffff" p-id="2336"></path></svg>