<?xml version="1.0" standalone="no"?><!DOCTYPE svg PUBLIC "-//W3C//DTD SVG 1.1//EN" "http://www.w3.org/Graphics/SVG/1.1/DTD/svg11.dtd"><svg t="1715867748338" class="icon" viewBox="0 0 1024 1024" version="1.1" xmlns="http://www.w3.org/2000/svg" p-id="3602" xmlns:xlink="http://www.w3.org/1999/xlink" width="64" height="64"><path d="M512 1022.35c281.86 0 510.35-228.492 510.35-510.35C1022.35 230.14 793.86 1.65 512 1.65 230.14 1.65 1.65 230.14 1.65 512 1.65 793.86 230.14 1022.35 512 1022.35z m0-35.196C249.58 987.154 36.846 774.42 36.846 512 36.846 249.58 249.58 36.846 512 36.846c262.42 0 475.154 212.734 475.154 475.154 0 262.42-212.734 475.154-475.154 475.154z" fill="#ffffff" p-id="3603"></path><path d="M448.15 390.842a21.442 21.442 0 0 1 0-30.84c8.72-8.516 22.864-8.516 31.588 0l148.908 145.38a21.44 21.44 0 0 1 0 30.838l-148.908 145.376c-8.724 8.516-22.866 8.516-31.588 0a21.442 21.442 0 0 1 0-30.84l133.114-129.956-133.114-129.958z" fill="#ffffff" p-id="3604"></path></svg>